HIERARCHY
ROOT RootJoint
{
    OFFSET   0.000000   0.000000   0.000000
    CHANNELS 6 Xposition Yposition Zposition Xrotation Yrotation Zrotation
    JOINT pelvis_lowerback
    {
        OFFSET   0.000000   0.093605   0.000000
        CHANNELS 3 Xrotation Yrotation Zrotation
        JOINT lowerback_torso
        {
            OFFSET   0.000000   0.100000   0.000000
            CHANNELS 3 Xrotation Yrotation Zrotation
            JOINT torso_head
            {
                OFFSET   0.000000   0.282350   0.000000
                CHANNELS 3 Xrotation Yrotation Zrotation
                End Site
                {
                    OFFSET   0.000000   0.192650   0.000000
                }
            }
            JOINT rTorso_Clavicle
            {
                OFFSET  -0.001000   0.157500   0.000000
                CHANNELS 3 Xrotation Yrotation Zrotation
                JOINT rShoulder
                {
                    OFFSET  -0.117647   0.000000   0.000000
                    CHANNELS 3 Xrotation Yrotation Zrotation
                    JOINT rElbow
                    {
                        OFFSET  -0.245000   0.000000   0.000000
                        CHANNELS 3 Xrotation Yrotation Zrotation
                        JOINT rWrist
                        {
                            OFFSET  -0.240000   0.000000   0.000000
                            CHANNELS 3 Xrotation Yrotation Zrotation
                            End Site
                            {
                                OFFSET  -0.116353  -0.002500   0.000000
                            }
                        }
                    }
                }
            }
            JOINT lTorso_Clavicle
            {
                OFFSET   0.001000   0.157500   0.000000
                CHANNELS 3 Xrotation Yrotation Zrotation
                JOINT lShoulder
                {
                    OFFSET   0.117647   0.000000   0.000000
                    CHANNELS 3 Xrotation Yrotation Zrotation
                    JOINT lElbow
                    {
                        OFFSET   0.245000   0.000000   0.000000
                        CHANNELS 3 Xrotation Yrotation Zrotation
                        JOINT lWrist
                        {
                            OFFSET   0.240000   0.000000   0.000000
                            CHANNELS 3 Xrotation Yrotation Zrotation
                            End Site
                            {
                                OFFSET   0.116353  -0.002500   0.000000
                            }
                        }
                    }
                }
            }
        }
    }
    JOINT rHip
    {
        OFFSET  -0.100000  -0.051395   0.000000
        CHANNELS 3 Xrotation Yrotation Zrotation
        JOINT rKnee
        {
            OFFSET   0.000000  -0.410000   0.000000
            CHANNELS 3 Xrotation Yrotation Zrotation
            JOINT rAnkle
            {
                OFFSET   0.000000  -0.390000   0.000000
                CHANNELS 3 Xrotation Yrotation Zrotation
                JOINT rToeJoint
                {
                    OFFSET   0.000000  -0.050000   0.130000
                    CHANNELS 3 Xrotation Yrotation Zrotation
                    End Site
                    {
                        OFFSET  -0.010000   0.002000   0.060000
                    }
                }
            }
        }
    }
    JOINT lHip
    {
        OFFSET   0.100000  -0.051395   0.000000
        CHANNELS 3 Xrotation Yrotation Zrotation
        JOINT lKnee
        {
            OFFSET   0.000000  -0.410000   0.000000
            CHANNELS 3 Xrotation Yrotation Zrotation
            JOINT lAnkle
            {
                OFFSET   0.000000  -0.390000   0.000000
                CHANNELS 3 Xrotation Yrotation Zrotation
                JOINT lToeJoint
                {
                    OFFSET   0.000000  -0.050000   0.130000
                    CHANNELS 3 Xrotation Yrotation Zrotation
                    End Site
                    {
                        OFFSET   0.010000   0.002000   0.060000
                    }
                }
            }
        }
    }
}
MOTION
Frames: 12
Frame Time:   0.008333
 -2.376719   0.925631   3.975860   0.000000   0.000000   0.000000   0.000000   0.000000   0.000000   0.000000   0.000000   0.000000   0.000000   0.000000   0.000000   0.000000   0.000000   0.000000   0.000000   0.000000   0.000000   0.000000   0.000000   0.000000   0.000000   0.000000   0.000000   0.000000   0.000000   0.000000   0.000000   0.000000   0.000000   0.000000   0.000000   0.000000   0.000000   0.000000   0.000000   0.000000   0.000000   0.000000   0.000000   0.000000   0.000000   0.000000   0.000000   0.000000   0.000000   0.000000   0.000000   0.000000   0.000000   0.000000   0.000000   0.000000   0.000000   0.000000   0.000000   0.000000   0.000000   0.000000   0.000000
 -2.376973   0.926161   3.974627  -0.329038  -0.120059  -0.241392   0.713392   0.336605   0.223776   0.066457  -0.592767  -0.005511  -0.289984  -0.357384   0.221025  -0.266110  -0.312507   0.415460  -0.529515   0.393869   2.046734   0.060606   2.861974   0.007299   0.252331  -1.416465  -3.076202   0.241089   0.684720  -0.388077   1.437847   0.343312  -1.890741   0.011663  -0.579588   0.010787   0.258294  -0.407818   2.608324  -0.128859   0.102770   0.287354   2.642437  -0.001064  -0.000357  -3.654893   0.242316   0.195980   0.103804  -0.000215   0.000206  -1.334187   0.242322   0.319874   3.609336  -0.002198   0.004134  -2.643637   0.665173  -0.133098  -0.397361  -0.000200  -0.002746
 -2.377317   0.926952   3.973618  -0.803013  -0.470717  -0.526859   1.456437   0.805829   0.447004   0.282997  -1.033216   0.031592  -0.504724  -0.722311   0.440535  -0.522009  -0.515757   1.555438  -1.087519   0.913216   4.683675   0.139072   5.660206   0.012433   0.493619  -1.926726  -5.425416   0.498512   1.442469  -1.468255   2.881545   0.729353  -4.350420   0.025580  -1.097430   0.018396   0.594891  -0.830085   4.534868   0.206068   0.211928   0.612025   5.511882  -0.002337  -0.006252  -7.076824   0.463892   0.401585   0.028286  -0.000020   0.000178  -2.855379   0.489789   0.725374   7.311939  -0.004859   0.001239  -5.098538   1.304124  -0.219051  -0.805386  -0.000135  -0.004189
 -2.377654   0.927566   3.972840  -1.273242  -1.006169  -0.813002   2.139252   1.381191   0.649247   0.508818  -1.306552   0.081946  -0.687799  -1.066146   0.643686  -0.755771  -0.630933   3.133200  -1.672640   1.472135   7.709199   0.215150   8.302226   0.017465   0.730550  -2.120226  -6.910379   0.756960   2.205837  -2.970050   4.329596   1.096527  -7.187641   0.038397  -1.562575   0.023125   0.930035  -1.173885   5.667624   0.869075   0.313010   0.900838   8.344105  -0.003831  -0.015765 -10.264014   0.658400   0.609844  -0.029884   0.000085   0.000268  -4.557317   0.710824   1.154986  10.735519  -0.007782  -0.006121  -7.388028   1.904219  -0.267721  -1.175614  -0.000009  -0.004427
 -2.377956   0.927694   3.972253  -1.710142  -1.682083  -1.093193   2.758325   2.035746   0.831749   0.710492  -1.443418   0.136859  -0.856490  -1.387357   0.830716  -0.965056  -0.683643   4.954945  -2.285607   2.040791  10.999036   0.279947  10.780872   0.022283   0.955142  -2.197571  -7.744434   1.016208   2.959648  -4.709669   5.787500   1.421593 -10.282043   0.048860  -1.984461   0.025742   1.251522  -1.453279   6.209010   1.789626   0.409787   1.132002  11.092077  -0.005694  -0.026718 -13.235376   0.827620   0.816447  -0.077799   0.000133   0.000396  -6.422455   0.900820   1.598766  13.850256  -0.010972  -0.014900  -9.528785   2.465686  -0.286517  -1.527638   0.000098  -0.004001
 -2.378182   0.927088   3.971830  -2.111493  -2.459909  -1.370690   3.319988   2.748967   1.003770   0.885693  -1.467552   0.206636  -1.015107  -1.687502   0.999844  -1.149308  -0.684495   6.933304  -2.897565   2.578800  14.340275   0.329058  13.102074   0.026016   1.163640  -2.222248  -8.068811   1.276280   3.695256  -6.569387   7.257310   1.689846 -13.553948   0.056645  -2.369924   0.026853   1.556486  -1.686146   6.344339   2.920938   0.506253   1.298033  13.745633  -0.007869  -0.037587 -16.006232   0.974138   1.018363  -0.118554   0.000146   0.000521  -8.422378   1.056930   2.056951  16.676149  -0.014143  -0.023245 -11.531370   2.989944  -0.281525  -1.862529   0.000143  -0.003221
 -2.378303   0.925561   3.971547  -2.480450  -3.305404  -1.647662   3.830893   3.503227   1.172862   1.037960  -1.399933   0.295403  -1.164364  -1.967931   1.154363  -1.311181  -0.646205   8.982227  -3.494002   3.069551  17.614042   0.361875  15.273042   0.028407   1.356877  -2.224191  -8.039840   1.537367   4.409650  -8.467450   8.738967   1.893767 -16.945999   0.061858  -2.723409   0.026891   1.844313  -1.883216   6.215164   4.224410   0.605117   1.396650  16.301703  -0.010233  -0.047362 -18.590333   1.100532   1.213373  -0.153484   0.000138   0.000623 -10.527896   1.177249   2.528385  19.238777  -0.016960  -0.030158 -13.404703   3.478650  -0.257899  -2.178336   0.000109  -0.002308
 -2.378373   0.922408   3.970674  -2.650930  -4.096495  -1.877403   4.305603   4.062293   1.202688   1.110706  -1.218853   0.514020  -1.553565  -1.955565   1.161405  -1.468422  -0.528913  10.517818  -3.844515   3.655408  20.446173   0.380417  17.638826   0.022945   1.387010  -2.486211  -6.998722   1.717785   5.175745  -9.712073  10.399281   1.819349 -20.413578   0.069264  -3.199287   0.029259   1.923955  -2.066932   5.074942   5.578968   0.660463   1.362375  17.788397  -0.010056  -0.048039 -20.994784   1.335447   1.397348  -0.276889   0.000087   0.001086 -13.223873   1.519512   3.064664  22.607348  -0.020480  -0.029127 -15.512991   3.965036  -0.275003  -2.420562   0.000108  -0.002341
 -2.378398   0.917892   3.969591  -2.798978  -4.997892  -2.080513   4.798723   4.660473   1.194796   1.183326  -0.964805   0.697041  -1.929647  -1.934293   1.167718  -1.658279  -0.330913  11.750187  -4.225101   4.266059  22.959356   0.378698  19.887446   0.017498   1.454776  -2.568847  -6.078421   1.893863   5.879155 -10.721786  11.938199   1.659781 -23.553047   0.072113  -3.650659   0.030277   2.003767  -2.304203   3.956293   6.896916   0.724742   1.216239  19.046616  -0.009631  -0.048220 -23.249566   1.547442   1.579463  -0.412889  -0.000048   0.001649 -15.900089   1.825965   3.653259  25.816850  -0.024515  -0.030245 -17.478300   4.424290  -0.271869  -2.650121   0.000153  -0.002082
 -2.378412   0.912154   3.968440  -2.938373  -5.928330  -2.268034   5.291853   5.264600   1.160393   1.264134  -0.675667   0.842922  -2.276480  -1.914511   1.175614  -1.876137  -0.090503  12.762249  -4.629497   4.872468  25.215962   0.364270  22.011411   0.012637   1.545977  -2.514213  -5.387957   2.065811   6.530697 -11.560577  13.362464   1.443479 -26.403714   0.071747  -4.071532   0.030142   2.075713  -2.534571   3.022525   8.171738   0.783814   0.998823  20.200441  -0.009175  -0.047919 -25.356312   1.736706   1.756120  -0.540473  -0.000207   0.002102 -18.496421   2.067462   4.282610  28.792104  -0.028276  -0.031335 -19.313851   4.852907  -0.253251  -2.859292   0.000209  -0.001706
 -2.378433   0.905302   3.967300  -3.071531  -6.831928  -2.443087   5.774063   5.853857   1.102783   1.349128  -0.375605   0.957058  -2.595772  -1.896541   1.183559  -2.111421   0.163895  13.606880  -5.047636   5.455393  27.258738   0.342326  24.010445   0.008464   1.648960  -2.369790  -4.889322   2.234798   7.138588 -12.267355  14.680975   1.189107 -29.003541   0.069290  -4.461900   0.029133   2.139049  -2.739064   2.254020   9.406241   0.836658   0.739873  21.277232  -0.008697  -0.046848 -27.323433   1.906322   1.925651  -0.657181  -0.000350   0.002385 -20.998194   2.247774   4.932626  31.542284  -0.031045  -0.031111 -21.029083   5.252280  -0.223020  -3.051344   0.000258  -0.001363
 -2.378464   0.897423   3.966218  -3.199426  -7.679183  -2.606637   6.239007   6.418535   1.025430   1.434984  -0.077879   1.044113  -2.890631  -1.880110   1.190697  -2.354959   0.415381  14.320763  -5.470761   6.004056  29.118815   0.316401  25.886861   0.004920   1.756540  -2.172039  -4.538436   2.401934   7.708836 -12.870407  15.902421   0.910279 -31.383309   0.065542  -4.822757   0.027511   2.194807  -2.912158   1.613992  10.600026   0.883562   0.461266  22.287425  -0.008201  -0.044982 -29.159886   2.058985   2.087339  -0.763680  -0.000457   0.002509 -23.396686   2.374925   5.583034  34.085624  -0.032470  -0.029447 -22.632024   5.624078  -0.184141  -3.227961   0.000288  -0.001103
